<svg id="visual" viewBox="0 0 900 600" width="900" height="600" xmlns="http://www.w3.org/2000/svg" xmlns:xlink="http://www.w3.org/1999/xlink" version="1.1"><path d="M0 431L25 416.3C50 401.7 100 372.3 150 374.5C200 376.7 250 410.3 300 429.2C350 448 400 452 450 438.7C500 425.3 550 394.7 600 394C650 393.3 700 422.7 750 445.7C800 468.7 850 485.3 875 493.7L900 502L900 601L875 601C850 601 800 601 750 601C700 601 650 601 600 601C550 601 500 601 450 601C400 601 350 601 300 601C250 601 200 601 150 601C100 601 50 601 25 601L0 601Z" fill="#033249" stroke-linecap="round" stroke-linejoin="miter"></path></svg>